<?xml version="1.0" encoding="UTF-8"?>
<svg version="1.1" xmlns="http://www.w3.org/2000/svg" width="1000" height="1000">
<path d="M0 0 C1.30066406 -0.00128906 2.60132813 -0.00257812 3.94140625 -0.00390625 C4.96258545 -0.00076416 4.96258545 -0.00076416 6.00439453 0.00244141 C8.08503515 0.0077901 10.16545989 0.0024957 12.24609375 -0.00390625 C14.19708984 -0.00197266 14.19708984 -0.00197266 16.1875 0 C17.39083984 0.00112793 18.59417969 0.00225586 19.83398438 0.00341797 C22.59375 0.1328125 22.59375 0.1328125 23.59375 1.1328125 C25.77794013 1.52663319 27.96636226 1.89701765 30.15625 2.2578125 C46.15552716 5.25429384 60.97915201 12.56610049 70.390625 26.3046875 C70.98617187 27.20960937 70.98617187 27.20960937 71.59375 28.1328125 C72.315625 29.1021875 73.0375 30.0715625 73.78125 31.0703125 C87.12923892 53.62381102 76.57922707 84.3016876 71.11181641 107.86425781 C70.12760738 112.17399874 69.21157405 116.49868696 68.28125 120.8203125 C60.20673701 158.09366596 60.20673701 158.09366596 56.40625 172.8828125 C54.98049169 178.44023636 53.75101597 184.01507615 52.59375 189.6328125 C50.40152698 200.26827519 48.03095714 210.82119109 44.59375 221.1328125 C91.45375 221.1328125 138.31375 221.1328125 186.59375 221.1328125 C186.92375 218.1628125 187.25375 215.1928125 187.59375 212.1328125 C187.93307235 210.22663282 188.30235312 208.32528931 188.71484375 206.43359375 C188.92818359 205.45197266 189.14152344 204.47035156 189.36132812 203.45898438 C189.69293945 201.9672168 189.69293945 201.9672168 190.03125 200.4453125 C190.24845703 199.43919922 190.46566406 198.43308594 190.68945312 197.39648438 C191.52469761 193.59148174 192.34599632 189.87101733 193.58666992 186.17431641 C194.57647264 183.18499222 195.30073854 180.245523 195.9609375 177.16796875 C196.20473145 176.04575928 196.44852539 174.9235498 196.69970703 173.76733398 C197.0803833 171.99918335 197.0803833 171.99918335 197.46875 170.1953125 C199.34172499 161.61681411 201.31853971 153.12148432 203.6640625 144.66015625 C204.95927436 139.74597008 206.01866609 134.78801699 207.09423828 129.82202148 C208.13751315 125.05385759 209.30565353 120.34241521 210.59375 115.6328125 C212.08349599 110.18010942 213.39162515 104.71639959 214.59375 99.1953125 C216.28094396 91.44641289 218.1459297 83.75784062 220.10693359 76.07421875 C220.58422192 74.17081015 221.03652001 72.26119079 221.48828125 70.3515625 C227.14642758 46.65957957 233.50982973 23.98058371 254.5703125 9.3671875 C264.52834321 3.29240429 273.95428411 -0.3537182 285.66796875 -0.23046875 C286.59543411 -0.23096725 287.52289948 -0.23146576 288.47846985 -0.23197937 C290.42390097 -0.22965454 292.36933602 -0.22002103 294.31469727 -0.20336914 C297.28364009 -0.17966842 300.25168894 -0.18283407 303.22070312 -0.18945312 C305.11979699 -0.18387865 307.0188871 -0.17677023 308.91796875 -0.16796875 C309.79934006 -0.16888016 310.68071136 -0.16979156 311.58879089 -0.17073059 C316.32722934 -0.11640367 320.13851092 0.33039234 324.59375 2.1328125 C325.45355469 2.41640625 326.31335938 2.7 327.19921875 2.9921875 C343.87574242 8.74445285 357.40273451 18.31664203 365.34375 34.3828125 C369.58870545 44.29225834 370.09394039 54.48103084 369.59375 65.1328125 C369.55604492 66.09598389 369.55604492 66.09598389 369.51757812 67.07861328 C368.50267664 88.9041733 362.28961277 110.54601758 356.95573425 131.64685059 C355.68411553 136.70256599 354.55706947 141.7724283 353.53125 146.8828125 C352.49760179 151.90985026 351.44207479 156.91288297 350.15625 161.8828125 C348.63598626 167.76448862 347.36945405 173.69443368 346.09375 179.6328125 C344.62216573 186.47866596 343.10454075 193.29402126 341.3515625 200.07421875 C339.62095 207.05911354 338.13237072 214.1035808 336.59375 221.1328125 C337.29757812 221.17768799 338.00140625 221.22256348 338.7265625 221.26879883 C365.11714198 222.99788134 396.42755005 225.17498951 415.59375 246.1328125 C416.62253676 247.44406212 417.62328838 248.77782836 418.59375 250.1328125 C419.12355469 250.84179688 419.65335938 251.55078125 420.19921875 252.28125 C421.80605868 254.54272842 423.26068711 256.69541601 424.59375 259.1328125 C425.11654541 260.08051514 425.11654541 260.08051514 425.64990234 261.04736328 C429.55098544 269.18942924 429.04410751 277.46476417 428.84375 286.2578125 C428.8236443 287.80206004 428.80540076 289.346333 428.7890625 290.890625 C428.74541203 294.6385573 428.67661244 298.38551789 428.59375 302.1328125 C427.93375 302.1328125 427.27375 302.1328125 426.59375 302.1328125 C426.49964844 303.15761719 426.40554688 304.18242187 426.30859375 305.23828125 C424.12543068 317.13234455 413.9540876 327.42881281 404.59375 334.3515625 C396.62457609 339.58621595 388.6593114 342.45364315 379.59375 345.1328125 C378.65088135 345.46055664 377.7080127 345.78830078 376.73657227 346.12597656 C362.66933648 350.63256247 347.28610433 349.36247155 332.71875 349.2578125 C330.27734742 349.24776291 327.83594084 349.23864056 325.39453125 349.23046875 C319.46084903 349.20861158 313.52731857 349.17529077 307.59375 349.1328125 C307.40039062 350.21820313 307.20703125 351.30359375 307.0078125 352.421875 C306.74502083 353.86722918 306.48198714 355.31253938 306.21875 356.7578125 C306.09242188 357.47066406 305.96609375 358.18351562 305.8359375 358.91796875 C305.06115391 363.14053931 303.99899346 367.06632386 302.59375 371.1328125 C302.10949993 373.10258159 301.65461419 375.07975944 301.2265625 377.0625 C300.86087158 378.73807983 300.86087158 378.73807983 300.48779297 380.44750977 C300.23400879 381.62240967 299.98022461 382.79730957 299.71875 384.0078125 C297.78633413 392.83978606 295.76852054 401.6251332 293.5234375 410.3828125 C292.46843711 414.63827626 291.52489359 418.91142102 290.59375 423.1953125 C289.12229274 429.95468471 287.41725317 436.61866222 285.59375 443.29296875 C284.29195575 448.29165525 283.19051517 453.32426028 282.09375 458.37109375 C280.87000063 463.97357132 279.51516984 469.53171662 278.09375 475.08691406 C276.63782965 480.82813122 275.36011295 486.6034522 274.1640625 492.40429688 C273.183693 496.99225416 271.91595756 501.44197883 270.5234375 505.9230957 C269.98178955 507.670075 269.98178955 507.670075 269.42919922 509.4523468 C269.15350098 510.33690048 268.87780273 511.22145416 268.59375 512.1328125 C269.6554541 512.12170944 270.7171582 512.11060638 271.81103516 512.09916687 C281.92816958 511.99680499 292.04519593 511.92238218 302.16273499 511.87375164 C307.3614803 511.84790778 312.5598002 511.8129847 317.75830078 511.75561523 C373.89916408 511.1528288 373.89916408 511.1528288 398.71875 524.8828125 C399.83507812 525.49640625 400.95140625 526.11 402.1015625 526.7421875 C402.92398438 527.20109375 403.74640625 527.66 404.59375 528.1328125 C404.59375 528.7928125 404.59375 529.4528125 404.59375 530.1328125 C405.150625 530.3803125 405.7075 530.6278125 406.28125 530.8828125 C416.45922495 536.38442058 424.14130787 548.90077873 427.98950195 559.57617188 C429.21134335 564.74591857 429.11234423 570.03270221 429.09472656 575.32177734 C429.0937581 577.36571086 429.13538369 579.40582879 429.1796875 581.44921875 C429.32635995 597.41366292 422.52738784 608.82528357 411.90625 620.3203125 C402.54887162 629.20436046 391.77808615 633.69821399 379.59375 637.1328125 C377.95986328 637.59494141 377.95986328 637.59494141 376.29296875 638.06640625 C366.38373108 640.6979573 356.85409233 641.28030095 346.64819336 641.24633789 C345.48620422 641.24648392 344.32421509 641.24662994 343.12701416 641.2467804 C339.31252124 641.24608755 335.49807806 641.23832469 331.68359375 641.23046875 C329.02844663 641.22860234 326.37330221 641.22713025 323.71815491 641.22618103 C317.46044475 641.22308383 311.20275224 641.21489233 304.94504982 641.20483154 C297.81559591 641.19362016 290.68614111 641.18814733 283.55668056 641.18313611 C268.9023613 641.17270823 254.2480559 641.15514024 239.59375 641.1328125 C239.46269867 641.93362244 239.33164734 642.73443237 239.19662476 643.55950928 C239.02136261 644.62236145 238.84610046 645.68521362 238.66552734 646.78027344 C238.49322601 647.82858337 238.32092468 648.87689331 238.1434021 649.95697021 C237.30583163 654.79637993 236.27704665 659.58759968 235.21875 664.3828125 C235.00033447 665.38078857 234.78191895 666.37876465 234.55688477 667.40698242 C233.01535071 674.38684645 231.33229703 681.31833372 229.55859375 688.2421875 C228.47340008 692.5388934 227.53442763 696.86508572 226.59375 701.1953125 C225.39192125 706.7164516 224.08348983 712.18013193 222.59375 717.6328125 C221.18791099 722.79479282 219.92073444 727.96888517 218.78125 733.1953125 C215.01492037 750.46215873 211.196059 767.76696824 206.4765625 784.80078125 C205.65506189 787.90140081 204.94273085 791.00519014 204.25366211 794.13671875 C200.76098927 809.81854905 196.79809034 825.41317384 186.59375 838.1328125 C186.06394531 838.85210938 185.53414062 839.57140625 184.98828125 840.3125 C177.5136832 849.79877999 166.94854453 855.62083278 155.59375 859.1328125 C154.57716309 859.64183105 154.57716309 859.64183105 153.54003906 860.16113281 C149.3536839 861.54178359 145.39700011 861.43809806 141.015625 861.43359375 C140.08961487 861.43787888 139.16360474 861.442164 138.20953369 861.44657898 C136.25281591 861.45231175 134.29607682 861.45283031 132.33935547 861.44848633 C129.36778698 861.44533797 126.39722595 861.46875841 123.42578125 861.49414062 C121.51823041 861.4964151 119.61067692 861.49711643 117.703125 861.49609375 C116.3854715 861.50990837 116.3854715 861.50990837 115.04119873 861.52400208 C109.04706398 861.47976874 104.15861633 860.31934305 98.59375 858.1328125 C97.55347656 857.75640625 96.51320313 857.38 95.44140625 856.9921875 C79.40132748 850.60315192 67.81128627 840.07148611 60.33984375 824.5234375 C50.85090947 800.0571958 59.91866842 767.23395305 66.76611328 742.90332031 C68.52449085 736.63971715 69.8642922 730.32015628 71.15625 723.9453125 C72.52392688 717.19796539 73.93001995 710.48569163 75.65625 703.8203125 C77.12790658 698.11690445 78.40851122 692.40228062 79.59375 686.6328125 C80.8003058 680.76020099 82.10682008 674.94113248 83.59375 669.1328125 C85.82981798 660.18854059 87.69442721 651.15459575 89.59375 642.1328125 C43.06375 641.8028125 -3.46625 641.4728125 -51.40625 641.1328125 C-53.64554539 650.6498179 -55.87697331 660.13735028 -57.90625 669.6953125 C-59.59246554 677.54061135 -61.40516386 685.32924736 -63.38671875 693.10546875 C-66.15391238 703.97215998 -68.69020768 714.89790754 -71.140625 725.83984375 C-71.2915007 726.5126387 -71.4423764 727.18543365 -71.5978241 727.87861633 C-72.34297253 731.20398687 -73.0841813 734.53011844 -73.81958008 737.85766602 C-75.535484 745.54808527 -77.45052423 753.15084506 -79.51147461 760.75341797 C-80.60890815 764.89821336 -81.53401554 769.06117533 -82.40625 773.2578125 C-83.77409338 779.6112279 -85.40799883 785.79057354 -87.40625 791.98046875 C-88.49296148 795.40615689 -89.45151442 798.85566658 -90.40625 802.3203125 C-91.81251397 807.28068892 -93.41751779 812.03505069 -95.41796875 816.78515625 C-96.07596705 818.34822731 -96.70387511 819.92431334 -97.30078125 821.51171875 C-102.94698563 836.48016696 -109.7346386 848.833233 -124.40625 856.1328125 C-128.08112241 857.47626217 -131.8376323 858.45951307 -135.6328125 859.40625 C-138.2963756 859.85466172 -138.2963756 859.85466172 -139.40625 861.1328125 C-140.77019597 861.24115411 -142.13962415 861.2818137 -143.5078125 861.29394531 C-144.81552612 861.30835663 -144.81552612 861.30835663 -146.1496582 861.32305908 C-147.1005835 861.32730896 -148.05150879 861.33155884 -149.03125 861.3359375 C-150.00731201 861.34163757 -150.98337402 861.34733765 -151.98901367 861.35321045 C-154.063791 861.36268186 -156.13858352 861.36920288 -158.21337891 861.37304688 C-161.36518399 861.3826869 -164.51631875 861.41366248 -167.66796875 861.4453125 C-169.68489197 861.45184897 -171.70181985 861.45709691 -173.71875 861.4609375 C-174.65348145 861.4732843 -175.58821289 861.4856311 -176.55126953 861.49835205 C-182.72033844 861.47771276 -187.67681337 860.37029231 -193.40625 858.1328125 C-194.82357422 857.69388672 -194.82357422 857.69388672 -196.26953125 857.24609375 C-203.73947232 854.80376852 -210.27955779 851.07265858 -216.40625 846.1328125 C-216.40625 845.4728125 -216.40625 844.8128125 -216.40625 844.1328125 C-216.99535156 843.8853125 -217.58445312 843.6378125 -218.19140625 843.3828125 C-225.05231255 839.51069607 -229.74174553 830.30647839 -232.40625 823.1328125 C-235.88633453 810.06502522 -235.64787102 799.23346888 -233.59375 786.0078125 C-233.41142822 784.81019287 -233.22910645 783.61257324 -233.04125977 782.37866211 C-231.28647031 771.03061334 -229.15593659 759.86458255 -226.28515625 748.7421875 C-225.08394703 743.80922163 -224.03189503 738.84709471 -222.96875 733.8828125 C-221.53277524 727.18624584 -220.05296368 720.51517504 -218.34375 713.8828125 C-216.64671942 707.25891896 -215.21306543 700.60252785 -213.83349609 693.90600586 C-212.9673981 689.72468195 -212.04890739 685.57782477 -210.96875 681.4453125 C-209.09352345 674.22259924 -207.67377253 666.8977369 -206.20727539 659.58325195 C-205.20165436 654.63785505 -204.12222114 649.89039773 -202.40625 645.1328125 C-202.05648242 643.80369568 -201.71528983 642.47198511 -201.40625 641.1328125 C-202.32664062 641.15601563 -203.24703125 641.17921875 -204.1953125 641.203125 C-228.56065742 641.55049244 -255.25478591 636.61058962 -274.2265625 620.2578125 C-280.31188422 614.3251691 -284.80661157 608.42336389 -287.6171875 600.359375 C-288.31298207 598.15763135 -288.31298207 598.15763135 -289.43457031 596.43359375 C-291.47769409 591.5958052 -290.7780162 585.90507989 -290.77685547 580.70849609 C-290.78119508 578.53531508 -290.8174358 576.36422368 -290.85546875 574.19140625 C-290.92079 566.11123733 -290.21319669 559.41381534 -286.40625 552.1328125 C-285.85457153 550.97120605 -285.85457153 550.97120605 -285.29174805 549.78613281 C-277.71159891 534.10205521 -262.15045548 523.62898035 -246.12890625 517.9765625 C-228.47043856 512.63654478 -211.67417067 511.72785843 -193.34375 511.9453125 C-191.10873306 511.96039972 -188.87370618 511.97408091 -186.63867188 511.98632812 C-181.22764303 512.01898316 -175.81699482 512.06885639 -170.40625 512.1328125 C-170.31625481 511.14856796 -170.31625481 511.14856796 -170.22444153 510.1444397 C-169.78650316 505.53535599 -169.30818045 501.00518615 -168.35546875 496.46875 C-168.1536499 495.50026123 -167.95183105 494.53177246 -167.74389648 493.53393555 C-167.52934814 492.53531494 -167.3147998 491.53669434 -167.09375 490.5078125 C-166.87082275 489.45311768 -166.64789551 488.39842285 -166.41821289 487.31176758 C-164.89317078 480.17875198 -163.19350621 473.1135444 -161.37109375 466.05078125 C-160.2487836 461.6059773 -159.32875952 457.12259778 -158.40625 452.6328125 C-157.10051821 446.28734767 -155.65442583 440.00601711 -154.04248047 433.72973633 C-151.51783788 423.7794616 -149.39709125 413.7319284 -147.19287109 403.70703125 C-144.94903243 393.51156323 -142.67931889 383.32179786 -140.40625 373.1328125 C-140.16455078 372.04806641 -139.92285156 370.96332031 -139.67382812 369.84570312 C-138.98349135 366.75321888 -138.2893144 363.66162461 -137.59375 360.5703125 C-137.28328735 359.17752075 -137.28328735 359.17752075 -136.96655273 357.7565918 C-136.77520752 356.91008057 -136.5838623 356.06356934 -136.38671875 355.19140625 C-136.22067139 354.45204834 -136.05462402 353.71269043 -135.88354492 352.95092773 C-135.40625 351.1328125 -135.40625 351.1328125 -134.40625 349.1328125 C-135.9436232 349.14280525 -135.9436232 349.14280525 -137.51205444 349.15299988 C-147.24850033 349.21424881 -156.98490631 349.25899283 -166.7215023 349.28824902 C-171.72522488 349.30379632 -176.72878992 349.32483048 -181.73242188 349.35913086 C-186.57595964 349.39211978 -191.41934746 349.40974732 -196.26298904 349.41744423 C-198.09583517 349.42291777 -199.92867462 349.43360209 -201.76145554 349.45000267 C-216.99167471 349.5806656 -232.62060082 348.91489008 -246.84375 342.8828125 C-247.58689453 342.57907715 -248.33003906 342.2753418 -249.09570312 341.96240234 C-266.01283887 334.82525565 -280.25076445 322.4295514 -288.12890625 305.68359375 C-291.00861797 298.50567235 -291.14723418 291.78776811 -291.03125 284.1328125 C-291.05058594 282.85664063 -291.06992187 281.58046875 -291.08984375 280.265625 C-291.01317607 265.26942615 -284.80695232 253.67329316 -274.59375 242.9453125 C-256.9005611 226.19396635 -233.53322234 220.93904565 -209.7578125 221.01928711 C-208.61547653 221.01914108 -207.47314056 221.01899506 -206.29618835 221.0188446 C-202.54118921 221.01953819 -198.78624042 221.0273046 -195.03125 221.03515625 C-192.41951525 221.0370224 -189.80778015 221.03844537 -187.19604492 221.03944397 C-181.03746604 221.04254289 -174.87890507 221.05073675 -168.72033405 221.06079346 C-161.70456505 221.07199945 -154.68879515 221.07747632 -147.67301941 221.08248889 C-133.25075373 221.09292067 -118.82850212 221.11049206 -104.40625 221.1328125 C-104.25364212 219.87298553 -104.10103424 218.61315857 -103.94380188 217.31515503 C-103.54009878 213.98245652 -102.94479195 210.77801034 -102.13671875 207.515625 C-101.88970215 206.50556396 -101.64268555 205.49550293 -101.38818359 204.45483398 C-101.12602051 203.39981689 -100.86385742 202.3447998 -100.59375 201.2578125 C-100.04694394 199.0224367 -99.50137787 196.78675723 -98.95703125 194.55078125 C-98.69100098 193.45813965 -98.4249707 192.36549805 -98.15087891 191.23974609 C-97.14140869 187.02777299 -96.20171602 182.80248074 -95.28125 178.5703125 C-93.93624363 172.40495234 -92.46462025 166.28420525 -90.90576172 160.16967773 C-89.64268188 155.17724046 -88.50515462 150.16373522 -87.40625 145.1328125 C-86.01873762 138.78060737 -84.5126472 132.47196402 -82.90625 126.171875 C-81.64314552 121.1786651 -80.50542774 116.16444887 -79.40625 111.1328125 C-78.01159257 104.75402531 -76.51934044 98.41104475 -74.89746094 92.08618164 C-74.05542603 88.78902279 -73.25504198 85.49277366 -72.546875 82.1640625 C-66.90683101 55.94479761 -57.71030215 27.78362152 -35.40625 11.1328125 C-27.25522044 6.09950288 -19.44268313 3.28348557 -10.07421875 1.640625 C-1.46182632 0.00137022 -1.46182632 0.00137022 0 0 Z M14.59375 349.1328125 C12.94375 356.3928125 11.29375 363.6528125 9.59375 371.1328125 C7.53125 379.3203125 7.53125 379.3203125 6.56640625 383.10546875 C5.20842753 388.5884978 4.09416905 394.12627039 2.98803711 399.66479492 C2.83471924 400.41994385 2.68140137 401.17509277 2.5234375 401.953125 C2.39179199 402.61586426 2.26014648 403.27860352 2.12451172 403.96142578 C1.59375 406.1328125 1.59375 406.1328125 0.62109375 409.00756836 C-0.39532755 412.09958573 -1.11724353 415.12991457 -1.7734375 418.31640625 C-2.13912842 420.06739624 -2.13912842 420.06739624 -2.51220703 421.85375977 C-2.76599121 423.08022217 -3.01977539 424.30668457 -3.28125 425.5703125 C-5.11984534 434.32178074 -7.06994662 442.96602026 -9.4765625 451.578125 C-10.81230756 456.68538553 -11.84845924 461.84502848 -12.90673828 467.015625 C-13.95727467 472.10913478 -15.11509383 477.15759362 -16.40625 482.1953125 C-18.28851088 489.55324141 -19.95274029 496.94792262 -21.57421875 504.3671875 C-22.14802901 506.96415039 -22.76120215 509.55262109 -23.40625 512.1328125 C24.11375 512.1328125 71.63375 512.1328125 120.59375 512.1328125 C122.94287135 503.32360743 125.20615614 494.72465242 126.96875 485.8203125 C129.60298746 472.86683931 132.58340126 460.00314406 135.59375 447.1328125 C136.6386088 442.65438294 137.68034053 438.17524187 138.71875 433.6953125 C138.96987549 432.61217773 139.22100098 431.52904297 139.47973633 430.41308594 C141.14490768 423.18909182 142.70289697 415.94878857 144.19580078 408.6875 C145.20676098 403.8213975 146.3499041 399.00677841 147.59375 394.1953125 C149.39980545 387.16307297 150.85523504 380.09172553 152.19921875 372.95727539 C152.83814354 369.62271884 153.48472016 366.451317 154.5859375 363.234375 C156.07122441 358.66337576 156.73398052 353.86154464 157.59375 349.1328125 C110.40375 349.1328125 63.21375 349.1328125 14.59375 349.1328125 Z " fill="#DB236B" transform="translate(431.40625,69.8671875)"/>
</svg>
